<svg width="512" height="512" viewBox="0 0 512 512" fill="none" xmlns="http://www.w3.org/2000/svg">
<rect width="512" height="512" fill="#EFEFEF"/>
<path d="M296.045 197.95L199.114 295.18C194.201 300.115 194.201 308.108 199.114 313.042C201.464 315.429 204.673 316.766 208.018 316.75C211.365 316.785 214.582 315.446 216.921 313.042L313.852 215.812C317.223 212.661 318.61 207.916 317.47 203.439C316.33 198.961 312.844 195.464 308.38 194.321C303.916 193.177 299.186 194.569 296.045 197.95Z" fill="#009688"/>
<path d="M225.489 217.497C225.489 224.477 219.848 230.135 212.889 230.135C205.931 230.135 200.29 224.477 200.29 217.497C200.29 210.517 205.931 204.859 212.889 204.859C219.848 204.859 225.489 210.517 225.489 217.497Z" fill="#009688"/>
<path d="M314.188 293.495C314.188 300.475 308.547 306.134 301.589 306.134C294.63 306.134 288.989 300.475 288.989 293.495C288.989 286.515 294.63 280.857 301.589 280.857C308.547 280.857 314.188 286.515 314.188 293.495Z" fill="#009688"/>
<path fill-rule="evenodd" clip-rule="evenodd" d="M427.73 185.84C433.278 200.25 429.64 216.594 418.509 227.269C410.451 234.494 405.844 244.822 405.844 255.663C405.844 266.504 410.451 276.832 418.509 284.057C430.133 294.651 434.093 311.311 428.484 326.026C422.876 340.742 408.847 350.504 393.142 350.618H388.942C378.514 350.698 368.569 355.039 361.404 362.64C354.239 370.241 350.473 380.444 350.976 390.892C351.534 401.397 347.735 411.665 340.48 419.262C333.225 426.858 323.161 431.106 312.674 430.998C302 431.002 291.84 426.398 284.788 418.36C277.557 410.325 267.272 405.739 256.481 405.739C245.691 405.739 235.405 410.325 228.175 418.36C221.123 426.398 210.963 431.002 200.288 430.998C189.74 431.112 179.619 426.818 172.354 419.147C165.088 411.475 161.332 401.117 161.986 390.555C162.442 380.135 158.656 369.977 151.496 362.413C144.336 354.85 134.418 350.531 124.02 350.45H119.82C104.796 349.735 91.5943 340.227 86.1147 326.177C80.6351 312.126 83.9012 296.157 94.4536 285.405C102.455 278.183 107.025 267.893 107.025 257.095C107.025 246.298 102.455 236.008 94.4536 228.786C82.1687 218.322 77.7676 201.242 83.4593 186.118C89.1511 170.993 103.707 161.091 119.82 161.381H124.02C134.557 161.358 144.614 156.962 151.806 149.238C158.997 141.513 162.682 131.148 161.986 120.602C161.619 110.211 165.502 100.122 172.736 92.6752C179.969 85.2285 189.923 81.0721 200.288 81.1706C211.004 81.1415 221.195 85.8216 228.175 93.9774C235.477 101.943 245.777 106.467 256.565 106.447C267.295 106.42 277.525 101.9 284.788 93.9774C291.736 85.7588 301.931 81.0151 312.674 81.0021C323.192 80.8912 333.284 85.162 340.544 92.7959C347.804 100.43 351.582 110.743 350.976 121.276C350.472 131.709 354.242 141.895 361.413 149.47C368.583 157.044 378.529 161.348 388.942 161.381H393.142C408.537 161.781 422.182 171.43 427.73 185.84ZM400.03 314.894C401.415 311.96 400.576 308.453 398.014 306.469V305.458C383.935 292.441 375.927 274.111 375.927 254.905C375.927 235.699 383.935 217.368 398.014 204.352C400.576 202.367 401.415 198.861 400.03 195.926C399.065 192.948 396.263 190.96 393.142 191.039H388.942C370.201 191.002 352.292 183.268 339.385 169.638C326.591 156.011 319.809 137.789 320.57 119.085C320.852 117.074 320.238 115.04 318.89 113.525C317.264 111.824 315.023 110.852 312.674 110.828C310.28 110.606 307.937 111.622 306.459 113.525C293.557 127.804 275.273 135.996 256.061 136.105C236.854 135.975 218.578 127.787 205.664 113.525C204.362 111.867 202.391 110.878 200.288 110.828C197.939 110.852 195.699 111.824 194.072 113.525C192.725 115.04 192.11 117.074 192.393 119.085C193.502 137.98 186.798 156.499 173.858 170.275C160.919 184.052 142.89 191.868 124.02 191.882H120.324C117.037 191.628 113.996 193.639 112.933 196.769C111.547 199.703 112.386 203.21 114.949 205.194C129.15 218.161 137.309 236.485 137.459 255.747C137.351 275.018 129.184 293.359 114.949 306.3C112.386 308.285 111.547 311.791 112.933 314.726C113.786 317.807 116.635 319.898 119.82 319.781H124.02C142.751 319.853 160.641 327.592 173.549 341.208C186.456 354.823 193.263 373.135 192.393 391.903C192.089 393.865 192.71 395.857 194.072 397.296C195.887 399.111 198.406 400.035 200.96 399.823C203.025 399.771 204.975 398.855 206.336 397.296C219.274 382.798 237.755 374.512 257.153 374.512C276.552 374.512 295.032 382.798 307.971 397.296C309.142 398.759 310.823 399.723 312.674 399.992C315.023 399.968 317.264 398.996 318.89 397.296C320.253 395.857 320.873 393.865 320.57 391.903C319.884 373.212 326.656 355.018 339.385 341.35C352.338 327.786 370.217 320.065 388.942 319.95H392.638C395.988 320.247 399.082 318.131 400.03 314.894Z" fill="#009688"/>
</svg>
